<svg width="80" height="97" viewBox="0 0 80 97" fill="none" xmlns="http://www.w3.org/2000/svg">
<path d="M45.3758 38.3559C45.2401 38.861 45.2069 39.3881 45.2783 39.9063C45.3499 40.4266 45.5254 40.9273 45.7945 41.3784C46.0636 41.8296 46.4206 42.222 46.8444 42.5323C47.2645 42.8399 47.7416 43.0607 48.2478 43.1817L60.1386 46.3678C60.6407 46.5141 61.1675 46.5567 61.6867 46.4929C62.2068 46.4289 62.7083 46.2595 63.1607 45.9951C63.612 45.7406 64.0068 45.397 64.321 44.985C64.6353 44.5729 64.8624 44.1011 64.9884 43.5984C65.2587 42.5823 65.1202 41.6004 64.5727 40.6929C64.3063 40.2453 63.9529 39.8556 63.5333 39.5468C63.1162 39.2398 62.6423 39.019 62.139 38.8972L50.251 35.7119C49.7485 35.5606 49.2209 35.5104 48.6987 35.5644C48.1734 35.6186 47.6641 35.7772 47.2008 36.0307C46.7517 36.2704 46.3574 36.601 46.0432 37.0015C45.7291 37.4018 45.5018 37.863 45.3758 38.3559ZM45.3758 38.3559C45.3764 38.3537 45.377 38.3516 45.3776 38.3494L46.2023 38.5725L45.3742 38.3624C45.3747 38.3602 45.3753 38.3581 45.3758 38.3559ZM42.3997 37.5503L42.3995 37.5153L42.3964 37.4804L40.8014 19.4996C40.8014 19.499 40.8013 19.4984 40.8013 19.4978C40.6956 18.2571 40.3346 17.1782 39.6608 16.3216C38.9822 15.4588 38.0394 14.8893 36.8934 14.5822C35.7929 14.2873 34.7277 14.3255 33.7366 14.7447C32.7567 15.1591 31.9229 15.9147 31.2158 16.9296C31.2155 16.9301 31.2152 16.9305 31.2149 16.9309L20.8416 31.711L20.8331 31.7231L20.825 31.7355C20.4716 32.2781 20.1984 32.8689 20.0139 33.4895C19.8732 33.9167 19.8239 34.3687 19.8694 34.8163C19.9154 35.2692 20.0574 35.7072 20.2858 36.101L20.2925 36.1124L20.2995 36.1236C20.7794 36.8947 21.5706 37.3723 22.5214 37.6271L23.3466 37.8482L23.3735 37.7479C23.9117 37.7685 24.4348 37.6621 24.9264 37.4094C25.6437 37.0408 26.2061 36.4062 26.6486 35.6089L28.5056 32.926L35.1078 34.6951L35.4233 37.9746C35.4261 38.8861 35.604 39.7132 36.0368 40.386C36.4885 41.0881 37.1643 41.5385 37.9908 41.76C38.9504 42.0171 39.884 42.0286 40.6769 41.6085C41.4838 41.181 41.9652 40.403 42.2153 39.4698C42.3507 38.9644 42.4047 38.3126 42.3997 37.5503ZM50.7726 27.8722C50.9574 28.0075 51.1533 28.1261 51.3578 28.2267L51.3374 28.3029L52.1626 28.524L64.0651 31.7133C64.5673 31.8597 65.0941 31.9023 65.6133 31.8384C66.1334 31.7744 66.635 31.605 67.0873 31.3406C67.5386 31.0862 67.9334 30.7425 68.2476 30.3305C68.5598 29.9212 68.7859 29.453 68.9125 28.9542C69.0547 28.4632 69.092 27.9477 69.0218 27.4412C68.951 26.9298 68.7721 26.4393 68.4972 26.0023C67.9495 25.1187 67.0758 24.4866 66.0654 24.2427L54.1784 21.0576C53.1694 20.752 52.0805 20.854 51.1457 21.3423L51.1432 21.3436C50.6852 21.5847 50.2839 21.9207 49.9661 22.3291C49.6506 22.7344 49.4246 23.2019 49.3027 23.7007C49.1681 24.2043 49.1353 24.7297 49.2064 25.2461C49.2781 25.7665 49.4536 26.2672 49.7227 26.7183C49.9917 27.1694 50.3488 27.5618 50.7726 27.8722ZM10.7143 68.6249L10.4929 69.4503L11.3184 69.6715L14.7591 70.5935L15.1069 70.6867L15.4165 70.5028L22.0394 66.5689C22.6665 66.2299 23.4008 66.147 24.088 66.3382L24.088 66.3383L24.0959 66.3404C24.853 66.5433 25.4454 66.9632 25.8952 67.6349C25.8959 67.636 25.8966 67.637 25.8974 67.6381L28.5048 71.6234L28.9178 72.2545L29.5953 71.923L40.122 66.7717L40.1276 66.7689C40.9292 66.3694 41.8458 66.2649 42.7165 66.4736C43.1294 66.5854 43.5177 66.7674 43.8944 67.0289C44.2275 67.2605 44.5003 67.5685 44.69 67.927L50.2652 79.228L50.4364 79.5751L50.8102 79.6752L54.2453 80.5956L55.0705 80.8168L55.2917 79.9915L60.4187 60.8573C60.9587 58.8419 60.8848 57.0391 60.0106 55.5706C59.1395 54.1073 57.5768 53.1502 55.5158 52.5979L24.424 44.2669C22.3451 43.7099 20.5002 43.7528 19.0047 44.5812C17.5025 45.4134 16.5312 46.9387 15.99 48.9585C15.99 48.9585 15.99 48.9586 15.9899 48.9587L10.7143 68.6249ZM28.3225 62.1197L28.3093 62.116L28.296 62.1127C27.8145 61.9941 27.3622 61.7786 26.9668 61.4794C26.5714 61.1801 26.2411 60.8034 25.9962 60.3722L25.9889 60.3594L25.9812 60.3469C25.7319 59.9411 25.5687 59.4883 25.5018 59.0167C25.4349 58.545 25.4658 58.0647 25.5926 57.6056L25.5942 57.5994C25.8632 56.5954 26.4359 55.8497 27.3551 55.307L27.3551 55.3071L27.364 55.3017C27.777 55.0511 28.2408 54.8957 28.7214 54.847C29.2021 54.7982 29.6876 54.8573 30.1425 55.0199L30.1641 55.0276L30.186 55.0342C31.199 55.3361 31.9631 55.9195 32.5178 56.8041L32.5177 56.8041L32.5253 56.8157C32.7845 57.2146 32.955 57.6646 33.0252 58.1352C33.0953 58.6057 33.0635 59.0858 32.9319 59.543L32.9297 59.5506L32.9276 59.5583C32.6705 60.5177 32.1083 61.235 31.1828 61.7455L31.1738 61.7505L31.1649 61.7557C30.7397 62.0038 30.269 62.1639 29.7807 62.2264C29.2924 62.2889 28.7965 62.2526 28.3225 62.1197ZM4.2785 74.5538C3.64044 73.4537 3.48787 72.0583 3.96609 70.2736L20.8837 7.13612C21.3619 5.35161 22.1916 4.2195 23.294 3.58575C24.3968 2.96581 25.874 2.82802 27.846 3.35642L72.9507 15.4422C74.8858 15.9607 76.0806 16.8129 76.7212 17.9013C77.3636 19.0008 77.5126 20.3935 77.0335 22.1814L60.1159 85.3189C59.6376 87.1039 58.8076 88.2362 57.7047 88.8698C56.6058 89.4918 55.1452 89.6322 53.2104 89.1138L8.10575 77.028C6.134 76.4997 4.92368 75.6419 4.2785 74.5538ZM31.5591 27.8797L34.7518 22.8157L35.0203 28.8071L31.5591 27.8797Z" stroke="#E4E4E7" stroke-width="1.70868"/>
<path d="M0.509277 89.7017V22.5239C0.509277 20.458 1.08314 18.8633 2.21877 17.7337C3.36649 16.6101 5.05183 16.0423 7.2929 16.0423H55.2796C57.4845 16.0423 59.1517 16.6101 60.2934 17.7337C61.435 18.8633 62.0029 20.458 62.0029 22.5239V89.6957C62.0029 91.7616 61.429 93.3563 60.2934 94.4859C59.1517 95.6095 57.4845 96.1773 55.2796 96.1773H7.2929C5.05183 96.1773 3.36649 95.6095 2.21877 94.4859C1.08314 93.3563 0.509277 91.7616 0.509277 89.6957V89.7017Z" fill="white"/>
<path d="M50.7976 34.5568H32.4288H32.349C31.9271 34.5698 31.5868 34.4917 31.1933 34.339C30.7999 34.1863 30.4412 33.956 30.1385 33.6618C29.8359 33.3676 29.5955 33.0156 29.4317 32.6266C29.2679 32.2376 29.184 31.8197 29.185 31.3976C29.1747 30.9907 29.2512 30.5862 29.4096 30.2113C29.5679 29.8363 29.8044 29.4994 30.1032 29.223C30.7353 28.6422 31.5709 28.334 32.4288 28.3652H50.7976C51.6392 28.3415 52.4558 28.6521 53.0689 29.229C53.3677 29.5054 53.6042 29.8423 53.7625 30.2173C53.9209 30.5923 53.9974 30.9967 53.9871 31.4036C53.9947 31.8191 53.9171 32.2318 53.7592 32.6161C53.6013 33.0005 53.3664 33.3485 53.0689 33.6387C52.7733 33.9389 52.4191 34.1753 52.0285 34.3332C51.6378 34.4912 51.2189 34.5673 50.7976 34.5568Z" fill="#F4F4F5"/>
<path d="M50.7975 45.0091H32.4286C32.0068 45.0221 31.5866 44.9501 31.1932 44.7974C30.7997 44.6446 30.441 44.4143 30.1383 44.1201C29.8357 43.826 29.5953 43.4739 29.4315 43.0849C29.2677 42.6959 29.1838 42.278 29.1848 41.8559C29.1795 41.4533 29.2584 41.054 29.4165 40.6836C29.5746 40.3133 29.8085 39.9801 30.103 39.7055C30.4117 39.4097 30.7766 39.1787 31.176 39.0262C31.5754 38.8737 32.0013 38.8027 32.4286 38.8175H50.7975C51.2162 38.8059 51.633 38.8786 52.0232 39.0311C52.4133 39.1836 52.7689 39.413 53.0687 39.7055C53.6849 40.2975 53.9869 41.0102 53.9869 41.8559C53.9945 42.2714 53.917 42.6841 53.7591 43.0684C53.6011 43.4528 53.3662 43.8008 53.0687 44.091C52.7731 44.3912 52.419 44.6276 52.0283 44.7855C51.6376 44.9435 51.2187 45.0196 50.7975 45.0091Z" fill="#F4F4F5"/>
<path d="M2.81885 93.8778C1.88747 92.9499 1.36362 91.5987 1.36362 89.6957V22.5239C1.36362 20.6209 1.88747 19.2697 2.81885 18.3418C3.75454 17.4274 5.19105 16.8967 7.2929 16.8967H55.2796C57.3422 16.8967 58.7616 17.4257 59.6928 18.3413C60.6287 19.2675 61.1485 20.6172 61.1485 22.5239V89.6957C61.1485 91.5993 60.6244 92.9507 59.6925 93.8786C58.7613 94.794 57.342 95.323 55.2796 95.323H7.2929C5.19105 95.323 3.75454 94.7923 2.81885 93.8778Z" stroke="#E4E4E7" stroke-width="1.70868"/>
<path d="M12.186 86.2646H8.52539L8.53143 65.3399C8.53143 61.3289 10.6094 59.3174 14.7774 59.3174H47.8559C51.9817 59.3174 54.0415 61.3289 54.0415 65.3338V85.6908H50.3869L41.8394 75.9472C41.4589 75.5344 40.9844 75.2194 40.4561 75.0291C39.9185 74.8358 39.3809 74.7391 38.8312 74.7391C37.7005 74.7662 36.6158 75.1919 35.7686 75.9412L26.6896 83.8544L23.035 80.5864C22.2497 79.8978 21.3436 79.5595 20.3227 79.5595C19.3562 79.5503 18.4242 79.9187 17.7253 80.5864L12.186 86.2646Z" fill="#F4F4F5"/>
<path d="M21.1622 74.9356C21.7178 75.1676 22.3135 75.2808 22.9131 75.2683C23.5077 75.2755 24.0976 75.1597 24.6478 74.9278C25.1979 74.696 25.6971 74.3528 26.1156 73.9187C27.0199 73.0248 27.4692 71.9593 27.4692 70.7162C27.4801 70.1139 27.3648 69.5162 27.1313 68.9637C26.8977 68.4112 26.5514 67.9167 26.1156 67.5137C25.2171 66.6554 24.1515 66.2055 22.9131 66.17C22.3172 66.12 21.7179 66.2072 21.1589 66.4254C20.5999 66.6435 20.0953 66.987 19.6818 67.4309C18.8006 68.3543 18.3571 69.4435 18.3571 70.7221C18.3527 71.3198 18.4681 71.9121 18.696 72.462C18.9239 73.0119 19.2595 73.5077 19.6818 73.9187C20.1029 74.3575 20.6066 74.7035 21.1622 74.9356Z" fill="#D4D4D8"/>
<path fill-rule="evenodd" clip-rule="evenodd" d="M9.08768 45.7671C10.1916 45.7671 10.8993 45.116 11.2107 43.8328L12.2675 40.8794H18.712L19.816 43.8328C20.1557 45.116 20.8586 45.7577 21.939 45.7577C23.3449 45.7577 24.0526 45.1019 24.0526 43.7903C24.0526 43.4601 23.9771 43.0119 23.8214 42.4458L18.8488 28.8349C18.2355 27.1364 17.1033 26.2872 15.4426 26.2872C13.8763 26.2872 12.7865 27.1364 12.1731 28.8349L7.20055 42.4505C7.05869 42.8851 6.98082 43.338 6.96938 43.7951C6.95292 44.0626 6.99364 44.3305 7.08881 44.5811C7.18399 44.8316 7.33145 45.059 7.52136 45.2481C7.88935 45.5925 8.41303 45.7671 9.08768 45.7671ZM13.1407 37.6996L15.3486 30.5805H15.627L17.8821 37.7044H13.1407V37.6996Z" fill="#D4D4D8"/>
</svg>
